<svg width="1440" height="1024" viewBox="0 0 1440 1024" fill="none" xmlns="http://www.w3.org/2000/svg">
<g clip-path="url(#clip0_214_4)">
<rect width="1440" height="1024" fill="#F4E6E6"/>
<path d="M777.542 -254C572.742 -87.6 1482.88 260.667 1963.54 414L2043.54 452" stroke="#F51BE0" stroke-width="6" stroke-dasharray="12 24 36 48"/>
<path d="M421.542 360C216.742 526.4 1126.88 874.667 1607.54 1028L1687.54 1066" stroke="#F51BE0" stroke-width="3"/>
<path d="M369.542 452C164.742 618.4 1074.88 966.667 1555.54 1120L1635.54 1158" stroke="#F51BE0" stroke-width="4" stroke-dasharray="8 12 24 32"/>
<path d="M220 452C220 430.647 213.438 409.855 201.276 392.667C189.113 375.478 171.988 362.797 152.407 356.478C132.827 350.16 111.818 350.536 92.4575 357.552C73.0967 364.568 56.4003 377.855 44.812 395.469C33.2237 413.082 27.3521 434.097 28.0567 455.437C28.7613 476.778 36.0051 497.323 48.7277 514.065C61.4504 530.808 78.9838 542.869 98.7615 548.482C118.539 554.096 139.523 552.968 158.64 545.263L137.476 488.282C130.039 491.28 121.876 491.718 114.181 489.535C106.487 487.351 99.6663 482.659 94.7168 476.145C89.7673 469.632 86.9493 461.639 86.6752 453.337C86.4011 445.035 88.6853 436.86 93.1935 430.008C97.7017 423.155 104.197 417.986 111.729 415.257C119.261 412.527 127.434 412.381 135.051 414.839C142.669 417.297 149.331 422.231 154.063 428.918C158.794 435.604 161.347 443.693 161.347 452H220Z" fill="#7899D4"/>
<path d="M468 452C468 430.647 461.438 409.855 449.276 392.667C437.113 375.478 419.988 362.797 400.407 356.478C380.827 350.16 359.818 350.536 340.457 357.552C321.097 364.568 304.4 377.855 292.812 395.469C281.224 413.082 275.352 434.097 276.057 455.437C276.761 476.778 284.005 497.323 296.728 514.065C309.45 530.808 326.984 542.869 346.761 548.482C366.539 554.096 387.523 552.968 406.64 545.263L385.476 488.282C378.039 491.28 369.876 491.718 362.181 489.535C354.487 487.351 347.666 482.659 342.717 476.145C337.767 469.632 334.949 461.639 334.675 453.337C334.401 445.035 336.685 436.86 341.193 430.008C345.702 423.155 352.197 417.986 359.729 415.257C367.261 412.527 375.434 412.381 383.051 414.839C390.669 417.297 397.331 422.231 402.063 428.918C406.794 435.604 409.347 443.693 409.347 452H468Z" fill="#B40072" fill-opacity="0.6"/>
<path d="M234 698C234 676.647 227.438 655.855 215.276 638.667C203.113 621.478 185.988 608.797 166.407 602.478C146.827 596.16 125.818 596.536 106.457 603.552C87.0967 610.568 70.4003 623.855 58.812 641.469C47.2237 659.082 41.3521 680.097 42.0567 701.437C42.7613 722.778 50.0051 743.323 62.7277 760.065C75.4504 776.808 92.9838 788.869 112.761 794.482C132.539 800.096 153.523 798.968 172.64 791.263L151.476 734.282C144.039 737.28 135.876 737.718 128.181 735.535C120.487 733.351 113.666 728.659 108.717 722.145C103.767 715.632 100.949 707.639 100.675 699.337C100.401 691.035 102.685 682.86 107.193 676.008C111.702 669.155 118.197 663.986 125.729 661.257C133.261 658.527 141.434 658.381 149.051 660.839C156.669 663.297 163.331 668.231 168.063 674.918C172.794 681.604 175.347 689.693 175.347 698H234Z" fill="#B40072"/>
<path d="M234 966C234 944.647 227.438 923.855 215.276 906.667C203.113 889.478 185.988 876.797 166.407 870.478C146.827 864.16 125.818 864.536 106.457 871.552C87.0967 878.568 70.4003 891.855 58.812 909.469C47.2237 927.082 41.3521 948.097 42.0567 969.437C42.7613 990.778 50.0051 1011.32 62.7277 1028.07C75.4504 1044.81 92.9838 1056.87 112.761 1062.48C132.539 1068.1 153.523 1066.97 172.64 1059.26L151.476 1002.28C144.039 1005.28 135.876 1005.72 128.181 1003.53C120.487 1001.35 113.666 996.659 108.717 990.145C103.767 983.632 100.949 975.639 100.675 967.337C100.401 959.035 102.685 950.86 107.193 944.008C111.702 937.155 118.197 931.986 125.729 929.257C133.261 926.527 141.434 926.381 149.051 928.839C156.669 931.297 163.331 936.231 168.063 942.918C172.794 949.604 175.347 957.693 175.347 966H234Z" fill="url(#paint0_radial_214_4)"/>
<path d="M220 206C220 184.647 213.438 163.855 201.276 146.667C189.113 129.478 171.988 116.797 152.407 110.478C132.827 104.16 111.818 104.536 92.4575 111.552C73.0967 118.568 56.4003 131.855 44.812 149.469C33.2237 167.082 27.3521 188.097 28.0567 209.437C28.7613 230.778 36.0051 251.323 48.7277 268.065C61.4504 284.808 78.9838 296.869 98.7615 302.482C118.539 308.096 139.523 306.968 158.64 299.263L137.476 242.282C130.039 245.28 121.876 245.718 114.181 243.535C106.487 241.351 99.6663 236.659 94.7168 230.145C89.7673 223.632 86.9493 215.639 86.6752 207.337C86.4011 199.035 88.6853 190.86 93.1935 184.008C97.7017 177.155 104.197 171.986 111.729 169.257C119.261 166.527 127.434 166.381 135.051 168.839C142.669 171.297 149.331 176.231 154.063 182.918C158.794 189.604 161.347 197.693 161.347 206H220Z" fill="#D10185"/>
<path d="M478 966C478 944.647 471.438 923.855 459.276 906.667C447.113 889.478 429.988 876.797 410.407 870.478C390.827 864.16 369.818 864.536 350.457 871.552C331.097 878.568 314.4 891.855 302.812 909.469C291.224 927.082 285.352 948.097 286.057 969.437C286.761 990.778 294.005 1011.32 306.728 1028.07C319.45 1044.81 336.984 1056.87 356.761 1062.48C376.539 1068.1 397.523 1066.97 416.64 1059.26L395.476 1002.28C388.039 1005.28 379.876 1005.72 372.181 1003.53C364.487 1001.35 357.666 996.659 352.717 990.145C347.767 983.632 344.949 975.639 344.675 967.337C344.401 959.035 346.685 950.86 351.193 944.008C355.702 937.155 362.197 931.986 369.729 929.257C377.261 926.527 385.434 926.381 393.051 928.839C400.669 931.297 407.331 936.231 412.063 942.918C416.794 949.604 419.347 957.693 419.347 966H478Z" fill="#7899D4" fill-opacity="0.88"/>
<path d="M468 698C468 676.647 461.438 655.855 449.276 638.667C437.113 621.478 419.988 608.797 400.407 602.478C380.827 596.16 359.818 596.536 340.457 603.552C321.097 610.568 304.4 623.855 292.812 641.469C281.224 659.082 275.352 680.097 276.057 701.437C276.761 722.778 284.005 743.323 296.728 760.065C309.45 776.808 326.984 788.869 346.761 794.482C366.539 800.096 387.523 798.968 406.64 791.263L385.476 734.282C378.039 737.28 369.876 737.718 362.181 735.535C354.487 733.351 347.666 728.659 342.717 722.145C337.767 715.632 334.949 707.639 334.675 699.337C334.401 691.035 336.685 682.86 341.193 676.008C345.702 669.155 352.197 663.986 359.729 661.257C367.261 658.527 375.434 658.381 383.051 660.839C390.669 663.297 397.331 668.231 402.063 674.918C406.794 681.604 409.347 689.693 409.347 698H468Z" fill="#7272AD" fill-opacity="0.68"/>
<path d="M478 206C478 184.647 471.438 163.855 459.276 146.667C447.113 129.478 429.988 116.797 410.407 110.478C390.827 104.16 369.818 104.536 350.457 111.552C331.097 118.568 314.4 131.855 302.812 149.469C291.224 167.082 285.352 188.097 286.057 209.437C286.761 230.778 294.005 251.323 306.728 268.065C319.45 284.808 336.984 296.869 356.761 302.482C376.539 308.096 397.523 306.968 416.64 299.263L395.476 242.282C388.039 245.28 379.876 245.718 372.181 243.535C364.487 241.351 357.666 236.659 352.717 230.145C347.767 223.632 344.949 215.639 344.675 207.337C344.401 199.035 346.685 190.86 351.193 184.008C355.702 177.155 362.197 171.986 369.729 169.257C377.261 166.527 385.434 166.381 393.051 168.839C400.669 171.297 407.331 176.231 412.063 182.918C416.794 189.604 419.347 197.693 419.347 206H478Z" fill="#B40072"/>
<path d="M711.152 12.2438C733.383 29.139 753.706 21.2052 762.186 12.2438M803.152 44.2438C801.152 120.244 -32.849 546.244 719.152 20.2438C764.89 -11.7481 772.779 1.0496 762.186 12.2438M762.186 12.2438C342.162 154.644 727.823 84.9108 973.156 32.2441L1035.16 332.244" stroke="#F51BE0" stroke-width="4"/>
</g>
<defs>
<radialGradient id="paint0_radial_214_4" cx="0" cy="0" r="1" gradientUnits="userSpaceOnUse" gradientTransform="translate(138 966) rotate(90) scale(100 96)">
<stop stop-color="#B40072"/>
<stop offset="0.503125" stop-color="#B40072" stop-opacity="0.91"/>
<stop offset="1" stop-color="#7272AB"/>
</radialGradient>
<clipPath id="clip0_214_4">
<rect width="1440" height="1024" fill="white"/>
</clipPath>
</defs>
</svg>
